<svg width="577" height="433" version="1.1" xmlns="http://www.w3.org/2000/svg" desc="Created with imagetracer.js version 1.2.6" ><path fill="rgb(0,0,0)" stroke="rgb(0,0,0)" stroke-width="1" opacity="0" d="M 0 0 L 577 0 L 577 433 L 0 433 L 0 0 Z M 189 64 L 171 68 L 156 77 L 151 86 Q 152 88 149 87 L 143 97 L 140 99 Q 131 103 130 116 Q 134 122 145 120 L 145 127 L 144 128 L 145 131 L 144 134 Q 143 140 146 143 L 154 146 L 159 146 L 166 143 Q 169 142 168 145 Q 170 150 177 151 L 182 151 L 188 149 L 201 141 L 205 135 L 215 140 L 225 137 Q 229 134 230 127 Q 233 123 239 122 L 241 119 L 243 119 L 247 114 Q 248 108 246 106 Q 238 105 234 101 L 230 97 Q 229 94 232 95 Q 237 91 238 83 Q 236 81 237 77 L 233 70 L 230 68 L 227 68 L 225 68 L 217 66 L 208 66 L 207 65 L 205 66 L 191 64 L 189 64 Z " /><path fill="rgb(147,77,75)" stroke="rgb(147,77,75)" stroke-width="1" opacity="0.9764705882352941" d="M 188.5 64 L 190.5 64 L 204.5 66 L 206.5 65 L 207.5 66 L 216.5 66 L 224.5 68 L 226.5 68 L 229.5 68 L 233 70 L 237 76.5 Q 235.8 81.3 238 82.5 Q 236.8 90.8 231.5 95 Q 229.3 94.3 230 96.5 L 233.5 101 Q 238.4 105.5 246 106 Q 247.6 108.1 247 113.5 L 242.5 119 L 241 118.5 L 238.5 122 Q 232.6 122.6 230 126.5 Q 229.1 133.6 224.5 137 L 214.5 140 L 204.5 135 L 200.5 141 L 187.5 149 L 181.5 151 L 176.5 151 Q 170.4 149.6 168 144.5 Q 168.8 141.9 165.5 143 L 158.5 146 L 153.5 146 L 146 143 Q 143.3 140.4 144 133.5 L 145 130.5 L 144 127.5 L 145 126.5 L 145 120 Q 133.5 122.3 130 115.5 Q 130.6 103.1 139.5 99 L 143 96.5 L 149 87 Q 151.7 88.1 151 85.5 L 156 77 L 170.5 68 L 188.5 64 Z " /></svg>